<?xml version="1.0" encoding="UTF-8" standalone="no"?>
<svg
   width="102"
   height="110"
   viewBox="0 0 102 110"
   fill="none"
   version="1.1"
   id="svg2"
   sodipodi:docname="do2logoFINAL.svg"
   inkscape:version="1.3.2 (091e20e, 2023-11-25, custom)"
   xmlns:inkscape="http://www.inkscape.org/namespaces/inkscape"
   xmlns:sodipodi="http://sodipodi.sourceforge.net/DTD/sodipodi-0.dtd"
   xmlns="http://www.w3.org/2000/svg"
   xmlns:svg="http://www.w3.org/2000/svg">
  <defs
     id="defs2" />
  <sodipodi:namedview
     id="namedview2"
     pagecolor="#ffffff"
     bordercolor="#000000"
     borderopacity="0.25"
     inkscape:showpageshadow="2"
     inkscape:pageopacity="0.0"
     inkscape:pagecheckerboard="0"
     inkscape:deskcolor="#d1d1d1"
     inkscape:zoom="3.8136364"
     inkscape:cx="51.263409"
     inkscape:cy="38.676996"
     inkscape:window-width="1920"
     inkscape:window-height="1017"
     inkscape:window-x="1912"
     inkscape:window-y="-8"
     inkscape:window-maximized="1"
     inkscape:current-layer="svg2" />
  <path
     d="m 41.1219,57.285 c 0,1.8709 -0.12,5.7832 -2.1029,10.7928 -1.8667,4.716 -9.3446,7 -14.3349,9.1694 -9.0629,3.9398 -12.3978,6.2802 -14.2908,8.661 -3.06852,3.8594 -0.4113,11.6982 1.7163,14.8478 1.979,2.93 7.5061,3.227 12.4151,3.244 4.4399,0.015 11.1088,-5.7652 18.2028,-10.9828 2.4647,-1.8128 3.8608,-3.5037 5.0452,-4.1601 5.2209,-2.8934 16.3297,-0.2017 19.6725,0.7461 3.9376,1.1164 7.8686,3.4801 12.9194,3.4346 5.7475,-0.0519 8.8246,-4.5236 11.1223,-7.4867 3.1299,-4.0361 3.308,-7.0457 4.3472,-13.7449 C 96.3564,68.4399 95.6229,65.144 94.0608,61.5213 90.1077,52.354 82.1338,50.1449 76.23,48.1922 74.2547,47.5389 72.7206,46.815 71.329,45.783 70.0287,44.8187 69.4851,43.3402 69.1305,41.5977 68.0374,36.2267 72.0973,29.5731 72.8222,22.8611 73.5731,15.908 64.0307,9.9992 58.0103,7.707 52.4865,5.60386 44.5166,5.9929 37.3963,6.0942 29.6206,6.20482 25.2612,7.47778 21.0774,9.43965 18.4095,10.6907 14.2895,13.952 10.8918,17.12 8.29174,19.5443 6.82609,25.0553 6.11107,29.245 c -0.42618,2.4973 0.44971,4.8509 1.53945,6.7265 2.75228,4.737 9.13878,7.6215 12.22118,8.7634 4.7757,1.7692 10.1847,1.9208 13.6766,3.219 2.3251,0.8644 3.4103,3.7641 4.0387,6.0855 0.8059,2.9776 -0.3779,7.5405 -1.1976,12.0069 -0.7324,3.9903 -2.9508,8.3105 -3.4265,10.8213 -0.4239,2.2375 -1.8853,4.0785 -4.0589,5.7698 -2.5576,1.9901 -6.0014,2.8336 -7.4543,4.5177 -1.5687,1.8182 -2.1213,3.9903 -1.9225,6.0988 0.0842,0.8935 0.6068,1.3587 1.2966,1.667 0.6898,0.3083 1.6517,0.4277 2.4798,0.3313 4.7992,-0.5587 10.6392,-9.164 19.1577,-14.2117 5.2703,-3.123 18.1257,-2.5929 23.7268,-2.2347 5.306,0.3393 13.0179,1.9417 16.1859,1.5581 1.1744,-0.1422 1.9223,-1.401 2.6878,-2.4583 3.1969,-4.4155 1.7349,-12.772 1.0997,-15.3369 -0.4713,-1.9028 -5.2317,-4.3047 -10.1033,-5.123 -4.9646,-0.8339 0.6299,13.5421 2.7777,22.3591 0.9255,3.7991 0.7415,6.3822 0.6302,7.3629 -0.0517,0.4561 -0.7042,-6.4064 -1.0967,-16.1726 -0.3322,-8.2691 -5.3261,-16.5652 -6.916,-20.3005 -0.1975,-0.4641 -0.9586,-0.4716 -1.4933,-0.0302 -1.4021,1.1578 -2.254,8.9616 -3.6637,18.5335 -0.4697,3.1895 -1.3267,2.8436 -2.8599,-0.7608 -4.3935,-10.3289 -6.6088,-17.1022 -7.006,-15.7337 -1.6146,5.5619 -4.6271,12.7904 -6.7506,15.6102 -2.326,3.0888 -5.6675,3.9162 -5.8188,4.9335 -0.2414,1.6221 4.4375,1.4085 7.6302,1.7879 2.4978,0.2968 5.4042,-1.5089 8.38,-4.3911 C 61.897,68.682 62.168,59.3018 62.3584,46.2924 62.4825,37.8182 67.2926,33.441 70.3082,30.3217 70.8376,29.7741 66.4577,28.2624 66.2964,27.7354 65.5213,25.2026 67.2319,22.49 63.8953,19.1092 61.6581,16.8424 54.128,14.9771 46.9058,13.3114 39.974,11.7127 31.8676,15.3103 21.0529,17.6118 c -4.3816,0.9325 -5.9506,2.5944 -7.2243,4.3462 -1.332,1.832 -2.1515,4.5599 -1.5023,7.5854 0.3305,1.5405 2.9645,1.7218 5.3423,2.0831 7.3827,1.1215 13.0656,-2.7594 13.5463,-3.8911 0.7388,-1.739 -6.6387,-1.4433 -8.7232,-2.5855 -7.3492,-4.0272 15.195,-5.2667 17.569,-5.4396 7.5303,-0.5486 10.5656,2.3452 13.9404,4.4033 2.8116,1.7146 3.9004,7.4147 2.8975,12.2572 -1.8419,8.8934 -5.447,20.3903 -7.8004,23.262 -0.4399,0.5369 -1.6002,-0.524 -2.2382,-1.3191 -0.6381,-0.795 -0.9971,-1.7927 -1.1553,-6.9868 -0.1583,-5.1942 -0.1051,-14.5546 -0.4166,-19.823 -0.3114,-5.2684 -0.9892,-6.1612 -1.6876,-6.6886 -1.2245,-0.9248 -2.7859,-0.8019 -4.1469,-0.7017 -4.1416,0.3046 -8.7246,3.9484 -13.2403,8.266 -0.9732,0.9305 -1.2066,1.4393 -1.3591,1.9395 -0.1525,0.5002 -0.1574,1.0305 0.1929,1.4289 2.9367,3.3398 11.1035,2.2937 13.5007,4.0108 0.5314,0.3806 0.6126,0.9977 0.5741,0.2522 -0.604,-5.512 -0.2249,-9.4296 0.428,-12.3583 0.1231,-0.5687 0.1968,-1.1597 0.2176,-1.8334"
     stroke="#a5a4b8"
     stroke-width="12"
     stroke-linecap="round"
     id="path1"
     style="display:inline;fill:#a5a4b8;fill-opacity:1;stroke:#e08100;stroke-opacity:1" />
  <path
     d="M24.0011 43.5747V19.6497C24.0011 19.6497 32.4105 17.5905 37.8364 17.9997C41.17 18.251 42.9926 18.8411 46.2364 19.6497C47.9856 20.0857 49.0777 20.0679 50.6835 20.8872C52.4748 21.801 53.265 22.7164 54.6364 24.1872C55.48 25.0918 55.954 25.6153 56.6129 26.6622C58.7129 29.9988 58.4171 32.6234 58.5893 36.5622C58.8101 41.6105 56.6129 49.3497 56.6129 49.3497L51.1776 59.2497L42.2835 68.7372L33.8835 75.3372L26.9658 79.8747L24.0011 81.5247V83.9997H66.0011"
     stroke="white"
     stroke-width="10"
     id="path2" />
  <circle
     cx="72.0011"
     cy="63.9996"
     r="11"
     stroke="white"
     stroke-width="8"
     id="circle2" />
</svg>
